<mxfile host="app.diagrams.net" agent="Mozilla/5.0 (Windows NT 10.0; Win64; x64) AppleWebKit/537.36 (KHTML, like Gecko) Chrome/137.0.0.0 Safari/537.36" version="27.1.4">
  <diagram name="Page-1" id="aL7PXZ-jDdVtmslCHA8o">
    <mxGraphModel dx="834" dy="459" grid="1" gridSize="10" guides="1" tooltips="1" connect="1" arrows="1" fold="1" page="1" pageScale="1" pageWidth="850" pageHeight="1100" math="0" shadow="0">
      <root>
        <mxCell id="0" />
        <mxCell id="1" parent="0" />
        <mxCell id="GCcrD9vd_HRE7DVqrYBA-36" value="&lt;font style=&quot;font-size: 16px;&quot;&gt;π A.CPF, A.Nome, B.Nome&lt;/font&gt;" style="text;whiteSpace=wrap;html=1;" vertex="1" parent="1">
          <mxGeometry x="460" y="310" width="230" height="40" as="geometry" />
        </mxCell>
        <mxCell id="GCcrD9vd_HRE7DVqrYBA-116" style="edgeStyle=orthogonalEdgeStyle;rounded=0;orthogonalLoop=1;jettySize=auto;html=1;exitX=0.75;exitY=0;exitDx=0;exitDy=0;entryX=0.25;entryY=1;entryDx=0;entryDy=0;endArrow=none;startFill=0;" edge="1" parent="1" source="GCcrD9vd_HRE7DVqrYBA-66" target="GCcrD9vd_HRE7DVqrYBA-115">
          <mxGeometry relative="1" as="geometry">
            <Array as="points">
              <mxPoint x="358" y="440" />
              <mxPoint x="383" y="440" />
            </Array>
          </mxGeometry>
        </mxCell>
        <mxCell id="GCcrD9vd_HRE7DVqrYBA-66" value="&lt;font style=&quot;font-size: 16px;&quot;&gt;⋈ B.CPF = A.CPF&lt;/font&gt;" style="text;whiteSpace=wrap;html=1;" vertex="1" parent="1">
          <mxGeometry x="200" y="450" width="210" height="40" as="geometry" />
        </mxCell>
        <mxCell id="GCcrD9vd_HRE7DVqrYBA-109" style="edgeStyle=orthogonalEdgeStyle;rounded=0;orthogonalLoop=1;jettySize=auto;html=1;exitX=0.25;exitY=0;exitDx=0;exitDy=0;endArrow=none;startFill=0;" edge="1" parent="1" source="GCcrD9vd_HRE7DVqrYBA-91" target="GCcrD9vd_HRE7DVqrYBA-108">
          <mxGeometry relative="1" as="geometry" />
        </mxCell>
        <mxCell id="GCcrD9vd_HRE7DVqrYBA-122" style="edgeStyle=orthogonalEdgeStyle;rounded=0;orthogonalLoop=1;jettySize=auto;html=1;exitX=0.25;exitY=1;exitDx=0;exitDy=0;entryX=0.5;entryY=0;entryDx=0;entryDy=0;endArrow=none;startFill=0;" edge="1" parent="1" source="GCcrD9vd_HRE7DVqrYBA-91" target="GCcrD9vd_HRE7DVqrYBA-94">
          <mxGeometry relative="1" as="geometry" />
        </mxCell>
        <mxCell id="GCcrD9vd_HRE7DVqrYBA-91" value="&lt;span style=&quot;font-family: Helvetica; font-size: 16px; font-style: normal; font-variant-ligatures: normal; font-variant-caps: normal; font-weight: 400; letter-spacing: normal; orphans: 2; text-align: left; text-indent: 0px; text-transform: none; widows: 2; word-spacing: 0px; -webkit-text-stroke-width: 0px; white-space: normal; text-decoration-thickness: initial; text-decoration-style: initial; text-decoration-color: initial; float: none; display: inline !important;&quot;&gt;&lt;font style=&quot;color: light-dark(rgb(255, 255, 255), rgb(255, 255, 255));&quot;&gt;&lt;span style=&quot;color: rgb(18, 18, 18); text-align: center; text-wrap-mode: nowrap;&quot;&gt;σ&lt;/span&gt;&amp;nbsp; B.Sexo = &#39;M&#39;&lt;/font&gt;&lt;/span&gt;" style="text;whiteSpace=wrap;html=1;" vertex="1" parent="1">
          <mxGeometry x="40" y="650" width="160" height="40" as="geometry" />
        </mxCell>
        <mxCell id="GCcrD9vd_HRE7DVqrYBA-126" style="edgeStyle=orthogonalEdgeStyle;rounded=0;orthogonalLoop=1;jettySize=auto;html=1;exitX=0.5;exitY=0;exitDx=0;exitDy=0;entryX=0.25;entryY=1;entryDx=0;entryDy=0;endArrow=none;startFill=0;" edge="1" parent="1" source="GCcrD9vd_HRE7DVqrYBA-92" target="GCcrD9vd_HRE7DVqrYBA-104">
          <mxGeometry relative="1" as="geometry" />
        </mxCell>
        <mxCell id="GCcrD9vd_HRE7DVqrYBA-92" value="A" style="ellipse;whiteSpace=wrap;html=1;aspect=fixed;" vertex="1" parent="1">
          <mxGeometry x="390" y="630" width="50" height="50" as="geometry" />
        </mxCell>
        <mxCell id="GCcrD9vd_HRE7DVqrYBA-94" value="B" style="ellipse;whiteSpace=wrap;html=1;aspect=fixed;" vertex="1" parent="1">
          <mxGeometry x="40" y="710" width="50" height="50" as="geometry" />
        </mxCell>
        <mxCell id="GCcrD9vd_HRE7DVqrYBA-95" style="edgeStyle=orthogonalEdgeStyle;rounded=0;orthogonalLoop=1;jettySize=auto;html=1;exitX=0.5;exitY=0;exitDx=0;exitDy=0;entryX=0.25;entryY=1;entryDx=0;entryDy=0;endArrow=none;startFill=0;" edge="1" parent="1" source="GCcrD9vd_HRE7DVqrYBA-96" target="GCcrD9vd_HRE7DVqrYBA-98">
          <mxGeometry relative="1" as="geometry" />
        </mxCell>
        <mxCell id="GCcrD9vd_HRE7DVqrYBA-96" value="C" style="ellipse;whiteSpace=wrap;html=1;aspect=fixed;" vertex="1" parent="1">
          <mxGeometry x="200" y="710" width="50" height="50" as="geometry" />
        </mxCell>
        <mxCell id="GCcrD9vd_HRE7DVqrYBA-118" style="edgeStyle=orthogonalEdgeStyle;rounded=0;orthogonalLoop=1;jettySize=auto;html=1;exitX=0.5;exitY=0;exitDx=0;exitDy=0;entryX=0.25;entryY=1;entryDx=0;entryDy=0;endArrow=none;startFill=0;" edge="1" parent="1" source="GCcrD9vd_HRE7DVqrYBA-97" target="GCcrD9vd_HRE7DVqrYBA-117">
          <mxGeometry relative="1" as="geometry" />
        </mxCell>
        <mxCell id="GCcrD9vd_HRE7DVqrYBA-97" value="D" style="ellipse;whiteSpace=wrap;html=1;aspect=fixed;" vertex="1" parent="1">
          <mxGeometry x="525" y="570" width="50" height="50" as="geometry" />
        </mxCell>
        <mxCell id="GCcrD9vd_HRE7DVqrYBA-124" style="edgeStyle=orthogonalEdgeStyle;rounded=0;orthogonalLoop=1;jettySize=auto;html=1;exitX=0.25;exitY=0;exitDx=0;exitDy=0;entryX=0.25;entryY=1;entryDx=0;entryDy=0;endArrow=none;startFill=0;" edge="1" parent="1" source="GCcrD9vd_HRE7DVqrYBA-98" target="GCcrD9vd_HRE7DVqrYBA-111">
          <mxGeometry relative="1" as="geometry" />
        </mxCell>
        <mxCell id="GCcrD9vd_HRE7DVqrYBA-98" value="&lt;span style=&quot;font-family: Helvetica; font-size: 16px; font-style: normal; font-variant-ligatures: normal; font-variant-caps: normal; font-weight: 400; letter-spacing: normal; orphans: 2; text-align: left; text-indent: 0px; text-transform: none; widows: 2; word-spacing: 0px; -webkit-text-stroke-width: 0px; white-space: normal; text-decoration-thickness: initial; text-decoration-style: initial; text-decoration-color: initial; float: none; display: inline !important;&quot;&gt;&lt;font style=&quot;color: light-dark(rgb(255, 255, 255), rgb(255, 255, 255));&quot;&gt;&lt;span style=&quot;color: rgb(18, 18, 18); text-align: center; text-wrap-mode: nowrap;&quot;&gt;σ&lt;/span&gt;&amp;nbsp; C.ValorPagar &amp;gt; 50&lt;/font&gt;&lt;/span&gt;" style="text;whiteSpace=wrap;html=1;" vertex="1" parent="1">
          <mxGeometry x="190" y="650" width="160" height="40" as="geometry" />
        </mxCell>
        <mxCell id="GCcrD9vd_HRE7DVqrYBA-102" style="edgeStyle=orthogonalEdgeStyle;rounded=0;orthogonalLoop=1;jettySize=auto;html=1;exitX=0.75;exitY=0;exitDx=0;exitDy=0;entryX=0.25;entryY=1;entryDx=0;entryDy=0;endArrow=none;startFill=0;" edge="1" parent="1" source="GCcrD9vd_HRE7DVqrYBA-99" target="GCcrD9vd_HRE7DVqrYBA-66">
          <mxGeometry relative="1" as="geometry" />
        </mxCell>
        <mxCell id="GCcrD9vd_HRE7DVqrYBA-99" value="&lt;font style=&quot;font-size: 16px;&quot;&gt;⋈ B.CPF = C.CPF_Cliente&lt;/font&gt;" style="text;whiteSpace=wrap;html=1;" vertex="1" parent="1">
          <mxGeometry x="80" y="530" width="210" height="40" as="geometry" />
        </mxCell>
        <mxCell id="GCcrD9vd_HRE7DVqrYBA-104" value="&lt;font style=&quot;font-size: 16px;&quot;&gt;π A.CPF&lt;/font&gt;" style="text;whiteSpace=wrap;html=1;" vertex="1" parent="1">
          <mxGeometry x="360" y="540" width="80" height="40" as="geometry" />
        </mxCell>
        <mxCell id="GCcrD9vd_HRE7DVqrYBA-108" value="&lt;font style=&quot;font-size: 16px;&quot;&gt;π B.Nome&lt;/font&gt;" style="text;whiteSpace=wrap;html=1;" vertex="1" parent="1">
          <mxGeometry x="40" y="580" width="80" height="40" as="geometry" />
        </mxCell>
        <mxCell id="GCcrD9vd_HRE7DVqrYBA-111" value="&lt;font style=&quot;font-size: 16px;&quot;&gt;π C.CPF_Cliente&lt;/font&gt;" style="text;whiteSpace=wrap;html=1;" vertex="1" parent="1">
          <mxGeometry x="190" y="590" width="150" height="40" as="geometry" />
        </mxCell>
        <mxCell id="GCcrD9vd_HRE7DVqrYBA-120" style="edgeStyle=orthogonalEdgeStyle;rounded=0;orthogonalLoop=1;jettySize=auto;html=1;exitX=0.75;exitY=0;exitDx=0;exitDy=0;entryX=0.25;entryY=1;entryDx=0;entryDy=0;endArrow=none;startFill=0;" edge="1" parent="1" source="GCcrD9vd_HRE7DVqrYBA-115" target="GCcrD9vd_HRE7DVqrYBA-36">
          <mxGeometry relative="1" as="geometry">
            <Array as="points">
              <mxPoint x="495" y="370" />
              <mxPoint x="518" y="370" />
            </Array>
          </mxGeometry>
        </mxCell>
        <mxCell id="GCcrD9vd_HRE7DVqrYBA-115" value="&lt;font style=&quot;font-size: 16px;&quot;&gt;⋈ A.CPF = D.CPF_Supervisor&lt;/font&gt;" style="text;whiteSpace=wrap;html=1;" vertex="1" parent="1">
          <mxGeometry x="330" y="380" width="220" height="40" as="geometry" />
        </mxCell>
        <mxCell id="GCcrD9vd_HRE7DVqrYBA-117" value="&lt;font style=&quot;font-size: 16px;&quot;&gt;π D.CPF_Supervisor&lt;/font&gt;" style="text;whiteSpace=wrap;html=1;" vertex="1" parent="1">
          <mxGeometry x="475" y="490" width="155" height="40" as="geometry" />
        </mxCell>
        <mxCell id="GCcrD9vd_HRE7DVqrYBA-119" style="edgeStyle=orthogonalEdgeStyle;rounded=0;orthogonalLoop=1;jettySize=auto;html=1;exitX=0.25;exitY=0;exitDx=0;exitDy=0;entryX=0.655;entryY=1;entryDx=0;entryDy=0;entryPerimeter=0;endArrow=none;startFill=0;" edge="1" parent="1" source="GCcrD9vd_HRE7DVqrYBA-117" target="GCcrD9vd_HRE7DVqrYBA-115">
          <mxGeometry relative="1" as="geometry" />
        </mxCell>
        <mxCell id="GCcrD9vd_HRE7DVqrYBA-123" style="edgeStyle=orthogonalEdgeStyle;rounded=0;orthogonalLoop=1;jettySize=auto;html=1;exitX=1;exitY=0.25;exitDx=0;exitDy=0;entryX=0.339;entryY=0.923;entryDx=0;entryDy=0;entryPerimeter=0;endArrow=none;startFill=0;" edge="1" parent="1" source="GCcrD9vd_HRE7DVqrYBA-108" target="GCcrD9vd_HRE7DVqrYBA-99">
          <mxGeometry relative="1" as="geometry" />
        </mxCell>
        <mxCell id="GCcrD9vd_HRE7DVqrYBA-125" style="edgeStyle=orthogonalEdgeStyle;rounded=0;orthogonalLoop=1;jettySize=auto;html=1;exitX=0.25;exitY=0;exitDx=0;exitDy=0;entryX=0.634;entryY=0.911;entryDx=0;entryDy=0;entryPerimeter=0;endArrow=none;startFill=0;" edge="1" parent="1" source="GCcrD9vd_HRE7DVqrYBA-111" target="GCcrD9vd_HRE7DVqrYBA-99">
          <mxGeometry relative="1" as="geometry">
            <Array as="points">
              <mxPoint x="228" y="580" />
              <mxPoint x="213" y="580" />
            </Array>
          </mxGeometry>
        </mxCell>
        <mxCell id="GCcrD9vd_HRE7DVqrYBA-127" style="edgeStyle=orthogonalEdgeStyle;rounded=0;orthogonalLoop=1;jettySize=auto;html=1;exitX=0.25;exitY=0;exitDx=0;exitDy=0;entryX=0.598;entryY=0.959;entryDx=0;entryDy=0;entryPerimeter=0;endArrow=none;startFill=0;" edge="1" parent="1" source="GCcrD9vd_HRE7DVqrYBA-104" target="GCcrD9vd_HRE7DVqrYBA-66">
          <mxGeometry relative="1" as="geometry" />
        </mxCell>
      </root>
    </mxGraphModel>
  </diagram>
</mxfile>
